{
    "asset": {
        "copyright": "2020 (c) Adobe Inc.",
        "generator": "Adobe Dimension - ef4f41a6842c60acc27c15e21adfa2a5f9da2982",
        "version": "2.0",
        "extensions": {
            "KHR_xmp": {
                "packet": 0
            }
        }
    },
    "accessors": [
        {
            "bufferView": 0,
            "componentType": 5126,
            "count": 7760,
            "type": "VEC3",
            "max": [
                0.0721069946885109,
                0.20998504757881165,
                0.08946599811315537
            ],
            "min": [
                -0.0721069946885109,
                0.0,
                -0.08946599811315537
            ]
        },
        {
            "bufferView": 1,
            "componentType": 5126,
            "count": 7760,
            "type": "VEC3"
        },
        {
            "bufferView": 2,
            "componentType": 5126,
            "count": 7760,
            "type": "VEC2"
        },
        {
            "bufferView": 3,
            "componentType": 5125,
            "count": 38760,
            "type": "SCALAR",
            "max": [
                7759.0
            ],
            "min": [
                0.0
            ]
        },
        {
            "bufferView": 4,
            "componentType": 5126,
            "count": 41172,
            "type": "VEC3",
            "max": [
                0.4707127809524536,
                0.11829926073551178,
                0.0
            ],
            "min": [
                0.0004798206500709057,
                0.0020865167025476696,
                -0.009999999776482582
            ]
        },
        {
            "bufferView": 5,
            "componentType": 5126,
            "count": 41172,
            "type": "VEC3"
        },
        {
            "bufferView": 6,
            "componentType": 5126,
            "count": 41172,
            "type": "VEC2"
        },
        {
            "bufferView": 7,
            "componentType": 5125,
            "count": 41172,
            "type": "SCALAR",
            "max": [
                41171.0
            ],
            "min": [
                0.0
            ]
        }
    ],
    "bufferViews": [
        {
            "buffer": 0,
            "byteOffset": 0,
            "byteLength": 93120,
            "target": 34962
        },
        {
            "buffer": 0,
            "byteOffset": 93120,
            "byteLength": 93120,
            "target": 34962
        },
        {
            "buffer": 0,
            "byteOffset": 186240,
            "byteLength": 62080,
            "target": 34962
        },
        {
            "buffer": 0,
            "byteOffset": 248320,
            "byteLength": 155040,
            "target": 34963
        },
        {
            "buffer": 0,
            "byteOffset": 403360,
            "byteLength": 494064,
            "target": 34962
        },
        {
            "buffer": 0,
            "byteOffset": 897424,
            "byteLength": 494064,
            "target": 34962
        },
        {
            "buffer": 0,
            "byteOffset": 1391488,
            "byteLength": 329376,
            "target": 34962
        },
        {
            "buffer": 0,
            "byteOffset": 1720864,
            "byteLength": 164688,
            "target": 34963
        }
    ],
    "buffers": [
        {
            "byteLength": 1885552,
            "uri": "goonies file_binary.bin"
        }
    ],
    "cameras": [
        {
            "perspective": {
                "znear": 0.000025400000595254825,
                "yfov": 0.6024156808853149,
                "zfar": 5.079999923706055,
                "aspectRatio": 1.3333333730697632
            },
            "type": "perspective",
            "name": "render_camera"
        }
    ],
    "images": [
        {
            "name": "normal_image_texture",
            "uri": "goonies file_images/normal_image_texture.png",
            "mimeType": "image/png"
        }
    ],
    "materials": [
        {
            "pbrMetallicRoughness": {
                "baseColorFactor": [
                    1.0,
                    0.7605246305465698,
                    0.3277781307697296,
                    1.0
                ],
                "roughnessFactor": 0.10980392247438431
            },
            "normalTexture": {
                "index": 0
            },
            "name": "Clean Gold",
            "doubleSided": true
        }
    ],
    "meshes": [
        {
            "name": "human_skull_1111",
            "primitives": [
                {
                    "attributes": {
                        "TEXCOORD_0": 2,
                        "NORMAL": 1,
                        "POSITION": 0
                    },
                    "indices": 3,
                    "material": 0
                }
            ]
        },
        {
            "name": "TextMesh#",
            "primitives": [
                {
                    "attributes": {
                        "POSITION": 4,
                        "NORMAL": 5,
                        "TEXCOORD_0": 6
                    },
                    "indices": 7,
                    "material": 0
                }
            ]
        }
    ],
    "nodes": [
        {
            "translation": [
                0.8598524332046509,
                0.7590765357017517,
                0.9009484052658081
            ],
            "rotation": [
                -0.11899025738239289,
                0.37221163511276247,
                0.04818130284547806,
                0.9192270636558533
            ],
            "camera": 0,
            "name": "render_camera_n3d"
        },
        {
            "translation": [
                -0.250048965215683,
                0.0,
                -0.2438943088054657
            ],
            "rotation": [
                0.0,
                0.38268348574638369,
                0.0,
                0.9238795042037964
            ],
            "scale": [
                2.621117353439331,
                2.621117353439331,
                2.62111759185791
            ],
            "mesh": 0,
            "name": "human_skull_1111"
        },
        {
            "translation": [
                -0.3423394560813904,
                0.5827335715293884,
                -0.018931498751044275
            ],
            "rotation": [
                0.0,
                0.3826833665370941,
                0.0,
                0.9238795638084412
            ],
            "scale": [
                1.0000001192092896,
                1.0,
                3.439317464828491
            ],
            "mesh": 1,
            "name": "Text"
        }
    ],
    "samplers": [
        {}
    ],
    "scenes": [
        {
            "nodes": [
                0,
                1,
                2
            ],
            "name": "scene"
        }
    ],
    "textures": [
        {
            "name": "normal_image_texture",
            "sampler": 0,
            "source": 0
        }
    ],
    "scene": 0,
    "extensions": {
        "KHR_xmp": {
            "@context": {
                "dc": "http://purl.org/dc/elements/1.1/"
            },
            "packets": [
                {
                    "dc:date": "2024-05-15T22:59:41.418-07:00",
                    "dc:format": "model/gltf+json",
                    "dc:title": "goonies file.dn",
                    "xmp:CreatorTool": "Adobe Dimension"
                }
            ]
        }
    },
    "extensionsUsed": [
        "KHR_xmp"
    ]
}